# xmcd
#
# Track frame offsets:
#	150
#	16522
#	35046
#	53973
#	74215
#	94821
#	115705
#	131452
#	147644
#	166640
#	185044
#	199790
#	220431
#
# Disc length: 2988 seconds
#
# Revision: 1
# Processed by: cddbd v1.5PL3 Copyright (c) Steve Scherf et al.
# Submitted via: audiograbber 1.83.01
#
DISCID=c40baa0d
DTITLE=Macy Gray - the trouble with being myself
DYEAR=2003
DGENRE=Funk
TTITLE0=When I see you
TTITLE1=It aint`t the money (featuring pharoahe monch)
TTITLE2=she aint`t right for you
TTITLE3=things that made me change
TTITLE4=come together
TTITLE5=she don`t write songs about you
TTITLE6=Jesus for a day
TTITLE7=my fondest childhood memories
TTITLE8=happiness
TTITLE9=speechless
TTITLE10=screamin`
TTITLE11=every now and then
TTITLE12=???
EXTD=
EXTT0=
EXTT1=
EXTT2=
EXTT3=
EXTT4=
EXTT5=
EXTT6=
EXTT7=
EXTT8=
EXTT9=
EXTT10=
EXTT11=
EXTT12=
PLAYORDER=
